<svg width="20" height="20" viewBox="0 0 20 20" fill="none" xmlns="http://www.w3.org/2000/svg">
<path d="M10.0001 19.8457C10.4749 19.8457 10.9302 19.6571 11.2659 19.3214C11.6016 18.9857 11.7902 18.5303 11.7902 18.0556H8.20996C8.20996 18.5303 8.39856 18.9857 8.73428 19.3214C9.06999 19.6571 9.52531 19.8457 10.0001 19.8457Z" fill="#353640"/>
<path d="M17.9872 15.7132C18.055 15.5496 18.0727 15.3696 18.0381 15.1959C18.0036 15.0222 17.9183 14.8627 17.793 14.7375L16.2651 13.2097V8.20986C16.2634 6.70451 15.7197 5.25011 14.7335 4.11274C13.7474 2.97538 12.3847 2.23109 10.8948 2.01604V1.04937C10.8948 0.811983 10.8005 0.584321 10.6326 0.416464C10.4647 0.248607 10.2371 0.154307 9.9997 0.154307C9.76232 0.154307 9.53465 0.248607 9.3668 0.416464C9.19894 0.584321 9.10464 0.811983 9.10464 1.04937V2.01604C7.61472 2.23109 6.25204 2.97538 5.26588 4.11274C4.27973 5.25011 3.73603 6.70451 3.73427 8.20986V13.2097L2.2064 14.7375C2.08126 14.8627 1.99604 15.0222 1.96152 15.1958C1.927 15.3694 1.94473 15.5493 2.01246 15.7129C2.08019 15.8764 2.19488 16.0162 2.34204 16.1145C2.48919 16.2129 2.66221 16.2654 2.83921 16.2654H17.1602C17.3372 16.2655 17.5103 16.213 17.6575 16.1147C17.8047 16.0164 17.9194 15.8767 17.9872 15.7132ZM4.99989 14.4753L5.26214 14.213C5.43001 14.0452 5.52434 13.8176 5.52439 13.5802V8.20986C5.52439 7.02294 5.9959 5.88462 6.83518 5.04534C7.67446 4.20606 8.81278 3.73455 9.9997 3.73455C11.1866 3.73455 12.3249 4.20606 13.1642 5.04534C14.0035 5.88462 14.475 7.02294 14.475 8.20986V13.5802C14.4751 13.8176 14.5694 14.0452 14.7373 14.213L14.9995 14.4753H4.99989Z" fill="#353640"/>
</svg>
