<svg width="168" height="31" viewBox="0 0 168 31" fill="none" xmlns="http://www.w3.org/2000/svg">
<path d="M43.306 23.26C46.374 23.26 48.194 21.44 48.766 18.814H46.738C46.244 20.218 45.282 21.05 43.878 21.05C41.85 21.05 40.81 19.386 40.81 16.838C40.81 14.03 42.084 12.418 43.8 12.418C44.814 12.418 45.438 12.782 45.802 13.25C45.256 13.458 44.71 14.056 44.71 14.888C44.71 15.876 45.386 16.734 46.66 16.734C48.012 16.734 48.74 15.798 48.74 14.498C48.74 12.652 46.946 10.546 43.436 10.546C39.484 10.546 36.728 13.198 36.728 17.124C36.728 20.79 39.172 23.26 43.306 23.26ZM53.7513 23.234C55.5453 23.234 57.0013 22.506 57.7813 20.66H57.9113C58.1193 22.454 59.2893 23.234 60.7713 23.234C62.5133 23.234 63.4753 22.324 63.9693 20.322L62.6953 19.906C62.4613 20.79 62.1753 21.076 61.8893 21.076C61.4733 21.076 61.2393 20.946 61.2393 20.348V14.81C61.2393 12.288 59.9393 10.572 56.2733 10.572C53.2833 10.572 50.5013 11.638 50.5013 13.874C50.5013 14.836 51.1513 15.694 52.4773 15.694C53.5433 15.694 54.3233 14.992 54.3233 14.082C54.3233 13.484 54.0893 13.042 53.6993 12.756C54.1933 12.548 54.7393 12.444 55.2593 12.444C56.7673 12.444 57.4953 13.016 57.4953 14.576V15.642C57.4953 15.954 57.3653 15.98 55.9353 16.188C52.9453 16.578 51.6973 17.098 50.8913 17.904C50.3453 18.45 50.0333 19.204 50.0333 20.01C50.0333 21.986 51.5933 23.234 53.7513 23.234ZM55.5193 21.024C54.3753 21.024 53.9073 20.296 53.9073 19.464C53.9073 18.294 54.4793 17.696 56.3253 17.384C56.9753 17.254 57.2613 17.228 57.4953 17.176V18.372C57.4953 19.932 56.6893 21.024 55.5193 21.024ZM64.0434 23H71.8174V20.842H69.8414V5.06H64.0434V7.27H66.0194V20.842H64.0434V23ZM86.166 13.796C85.906 11.794 84.814 10.572 82.734 10.572C80.628 10.572 79.302 11.976 78.444 14.03V10.832H73.088V12.99H74.882V20.842H73.088V23H79.926V20.842H78.678V16.084C78.678 14.342 79.796 13.12 80.888 13.12C81.356 13.12 81.72 13.25 81.954 13.51C82.344 13.9 82.526 14.55 82.526 15.382V20.842H81.226V23H87.57V20.842H86.322V16.084C86.322 14.342 87.44 13.12 88.532 13.12C89.026 13.12 89.364 13.25 89.624 13.51C90.014 13.9 90.17 14.55 90.17 15.382V20.842H88.87V23H95.734V20.842H93.966V14.862C93.966 12.34 92.926 10.572 90.378 10.572C88.35 10.572 87.05 11.846 86.166 13.796ZM104.397 20.894C102.655 20.894 101.849 19.178 101.849 16.994C101.849 14.758 102.837 12.964 104.345 12.964C105.801 12.964 106.503 14.238 106.503 16.76C106.503 19.438 105.853 20.894 104.397 20.894ZM96.4933 27.186H104.319V25.028H102.083V20.972C102.707 22.142 103.955 23 105.749 23C106.997 23 108.011 22.506 108.895 21.622C109.987 20.53 110.611 18.84 110.611 16.708C110.611 14.654 110.065 12.938 108.947 11.82C108.167 11.04 107.179 10.546 105.905 10.546C103.903 10.546 102.577 11.768 101.849 13.692V10.832H96.4933V12.99H98.2613V25.028H96.4933V27.186ZM115.831 23.234C117.625 23.234 119.081 22.506 119.861 20.66H119.991C120.199 22.454 121.369 23.234 122.851 23.234C124.593 23.234 125.555 22.324 126.049 20.322L124.775 19.906C124.541 20.79 124.255 21.076 123.969 21.076C123.553 21.076 123.319 20.946 123.319 20.348V14.81C123.319 12.288 122.019 10.572 118.353 10.572C115.363 10.572 112.581 11.638 112.581 13.874C112.581 14.836 113.231 15.694 114.557 15.694C115.623 15.694 116.403 14.992 116.403 14.082C116.403 13.484 116.169 13.042 115.779 12.756C116.273 12.548 116.819 12.444 117.339 12.444C118.847 12.444 119.575 13.016 119.575 14.576V15.642C119.575 15.954 119.445 15.98 118.015 16.188C115.025 16.578 113.777 17.098 112.971 17.904C112.425 18.45 112.113 19.204 112.113 20.01C112.113 21.986 113.673 23.234 115.831 23.234ZM117.599 21.024C116.455 21.024 115.987 20.296 115.987 19.464C115.987 18.294 116.559 17.696 118.405 17.384C119.055 17.254 119.341 17.228 119.575 17.176V18.372C119.575 19.932 118.769 21.024 117.599 21.024ZM133.977 20.894C132.235 20.894 131.429 19.178 131.429 16.994C131.429 14.758 132.417 12.964 133.925 12.964C135.381 12.964 136.083 14.238 136.083 16.76C136.083 19.438 135.433 20.894 133.977 20.894ZM126.073 27.186H133.899V25.028H131.663V20.972C132.287 22.142 133.535 23 135.329 23C136.577 23 137.591 22.506 138.475 21.622C139.567 20.53 140.191 18.84 140.191 16.708C140.191 14.654 139.645 12.938 138.527 11.82C137.747 11.04 136.759 10.546 135.485 10.546C133.483 10.546 132.157 11.768 131.429 13.692V10.832H126.073V12.99H127.841V25.028H126.073V27.186ZM153.913 17.41C154.095 13.458 152.171 10.546 148.063 10.546C144.397 10.546 141.667 13.328 141.667 17.02C141.667 20.764 144.137 23.26 148.193 23.26C151.599 23.26 153.315 21.596 153.783 19.048H151.755C151.209 20.582 150.299 21.18 148.843 21.18C146.919 21.18 145.775 20.244 145.619 17.41H153.913ZM147.985 12.314C149.389 12.314 150.065 13.302 150.195 15.772H145.645C145.801 13.172 146.633 12.314 147.985 12.314ZM155.43 23H163.282V20.842H161.02V15.486C161.462 13.978 162.32 13.198 163.022 13.146C163.022 13.224 162.996 13.302 162.996 13.354C162.996 14.55 163.88 15.2 165.024 15.2C166.142 15.2 167.052 14.264 167.052 12.964C167.052 11.69 166.09 10.572 164.582 10.572C162.918 10.572 161.514 11.69 160.786 13.952V10.832H155.43V12.99H157.224V20.842H155.43V23Z" fill="black"/>
<circle cx="4.5" cy="6.5" r="4.5" fill="#2C2E33"/>
<circle cx="19.5" cy="6.5" r="3.5" stroke="#2C2E33" stroke-width="2"/>
<circle cx="4.5" cy="21.5" r="3.5" stroke="#2C2E33" stroke-width="2"/>
<circle cx="19.5" cy="21.5" r="4.5" fill="#2C2E33"/>
</svg>
