<svg width="184" height="31" viewBox="0 0 184 31" fill="none" xmlns="http://www.w3.org/2000/svg">
<path d="M36.91 23.234H38.912L39.328 21.596C40.108 22.48 41.382 23.26 43.28 23.26C46.244 23.26 47.882 21.362 47.882 19.256C47.882 16.838 46.088 15.98 43.436 15.278C41.122 14.68 40.42 14.342 40.42 13.458C40.42 12.756 40.94 12.288 41.954 12.288C43.254 12.288 44.502 13.302 45.438 14.758H47.44V10.598H45.412L44.996 12.054C44.242 11.144 43.098 10.546 41.512 10.546C38.808 10.546 37.092 12.34 37.092 14.472C37.092 16.656 38.522 17.592 41.434 18.346C43.852 18.97 44.528 19.334 44.528 20.27C44.528 21.024 44.034 21.518 42.942 21.518C41.46 21.518 39.978 20.4 38.912 18.762H36.91V23.234ZM55.8744 23.26C58.9424 23.26 60.7624 21.44 61.3344 18.814H59.3064C58.8124 20.218 57.8504 21.05 56.4464 21.05C54.4184 21.05 53.3784 19.386 53.3784 16.838C53.3784 14.03 54.6524 12.418 56.3684 12.418C57.3824 12.418 58.0064 12.782 58.3704 13.25C57.8244 13.458 57.2784 14.056 57.2784 14.888C57.2784 15.876 57.9544 16.734 59.2284 16.734C60.5804 16.734 61.3084 15.798 61.3084 14.498C61.3084 12.652 59.5144 10.546 56.0044 10.546C52.0524 10.546 49.2964 13.198 49.2964 17.124C49.2964 20.79 51.7404 23.26 55.8744 23.26ZM62.6524 23H70.5044V20.842H68.2424V15.486C68.6844 13.978 69.5424 13.198 70.2444 13.146C70.2444 13.224 70.2184 13.302 70.2184 13.354C70.2184 14.55 71.1024 15.2 72.2464 15.2C73.3644 15.2 74.2744 14.264 74.2744 12.964C74.2744 11.69 73.3124 10.572 71.8044 10.572C70.1404 10.572 68.7364 11.69 68.0084 13.952V10.832H62.6524V12.99H64.4464V20.842H62.6524V23ZM78.8378 9.038C80.2158 9.038 81.1778 8.076 81.1778 6.802C81.1778 5.554 80.2418 4.618 78.8378 4.618C77.4598 4.618 76.5238 5.606 76.5238 6.88C76.5238 8.154 77.4338 9.038 78.8378 9.038ZM75.1458 23H82.8938V20.842H80.9178V10.832H75.1458V12.99H77.1218V20.842H75.1458V23ZM91.3367 21.154C89.6987 21.154 88.7367 19.516 88.7367 17.124C88.7367 14.784 89.6727 12.964 91.3367 12.964C92.8447 12.964 93.5207 14.342 93.5207 16.942C93.5207 19.698 92.8447 21.154 91.3367 21.154ZM85.1487 23.182H87.1507L88.3467 20.712C89.1527 22.246 90.4527 23.26 92.6107 23.26C93.9107 23.26 95.0287 22.792 95.8607 21.96C96.9527 20.868 97.6027 19.074 97.6027 16.89C97.6027 14.732 97.0567 12.912 95.9387 11.794C95.1847 11.04 94.2227 10.546 92.8447 10.546C90.9987 10.546 89.7247 11.638 88.9707 13.25V5.06H83.3807V7.27H85.1487V23.182ZM106.241 21.154C104.603 21.154 103.641 19.516 103.641 17.124C103.641 14.784 104.577 12.964 106.241 12.964C107.749 12.964 108.425 14.342 108.425 16.942C108.425 19.698 107.749 21.154 106.241 21.154ZM100.053 23.182H102.055L103.251 20.712C104.057 22.246 105.357 23.26 107.515 23.26C108.815 23.26 109.933 22.792 110.765 21.96C111.857 20.868 112.507 19.074 112.507 16.89C112.507 14.732 111.961 12.912 110.843 11.794C110.089 11.04 109.127 10.546 107.749 10.546C105.903 10.546 104.629 11.638 103.875 13.25V5.06H98.285V7.27H100.053V23.182ZM113.809 23H121.583V20.842H119.607V5.06H113.809V7.27H115.785V20.842H113.809V23ZM135.074 17.41C135.256 13.458 133.332 10.546 129.224 10.546C125.558 10.546 122.828 13.328 122.828 17.02C122.828 20.764 125.298 23.26 129.354 23.26C132.76 23.26 134.476 21.596 134.944 19.048H132.916C132.37 20.582 131.46 21.18 130.004 21.18C128.08 21.18 126.936 20.244 126.78 17.41H135.074ZM129.146 12.314C130.55 12.314 131.226 13.302 131.356 15.772H126.806C126.962 13.172 127.794 12.314 129.146 12.314ZM136.408 23H143.35V20.842H141.998V16.084C141.998 14.342 143.116 13.12 144.312 13.12C144.858 13.12 145.248 13.276 145.534 13.536C145.924 13.926 146.08 14.576 146.08 15.382V20.842H144.702V23H151.644V20.842H149.902V14.862C149.902 12.34 148.81 10.572 146.184 10.572C144.208 10.572 142.934 11.716 141.998 13.562V5.06H136.408V7.27H138.176V20.842H136.408V23ZM157.859 23.234C160.069 23.234 161.395 21.83 162.253 19.802V23H167.583V20.842H165.815V10.832H160.225V12.99H162.019V17.722C162.019 19.49 160.901 20.712 159.731 20.712C159.185 20.712 158.795 20.53 158.561 20.296C158.171 19.88 158.015 19.256 158.015 18.45V10.832H152.451V12.99H154.219V18.97C154.219 21.466 155.285 23.234 157.859 23.234ZM175.989 21.154C174.351 21.154 173.389 19.516 173.389 17.124C173.389 14.784 174.325 12.964 175.989 12.964C177.497 12.964 178.173 14.342 178.173 16.942C178.173 19.698 177.497 21.154 175.989 21.154ZM169.801 23.182H171.803L172.999 20.712C173.805 22.246 175.105 23.26 177.263 23.26C178.563 23.26 179.681 22.792 180.513 21.96C181.605 20.868 182.255 19.074 182.255 16.89C182.255 14.732 181.709 12.912 180.591 11.794C179.837 11.04 178.875 10.546 177.497 10.546C175.651 10.546 174.377 11.638 173.623 13.25V5.06H168.033V7.27H169.801V23.182Z" fill="white"/>
<circle cx="4.5" cy="6.5" r="4.5" fill="#E5E1F5"/>
<circle cx="19.5" cy="6.5" r="3.5" stroke="#E5E1F5" stroke-width="2"/>
<circle cx="4.5" cy="21.5" r="3.5" stroke="#E5E1F5" stroke-width="2"/>
<circle cx="19.5" cy="21.5" r="4.5" fill="#E5E1F5"/>
</svg>
