<svg width="48" height="48" viewBox="0 0 48 48" fill="none" xmlns="http://www.w3.org/2000/svg">
<circle cx="24" cy="24" r="24" fill="#95959D"/>
<path d="M26.968 17.7779C26.968 18.7495 26.5743 19.6592 25.8555 20.3404C25.7118 20.4776 25.5555 20.6029 25.393 20.712C24.7805 21.1307 24.0524 21.3651 23.3212 21.3651C22.768 21.3651 22.2337 21.2339 21.7368 20.9779C21.5962 20.9061 21.4649 20.8248 21.3368 20.7401C21.3337 20.7339 21.3337 20.7339 21.3305 20.7339C20.4243 20.0995 19.8337 19.0464 19.7837 17.9401C19.7274 16.6436 20.3743 15.412 21.4743 14.7279C22.0399 14.3748 22.6962 14.1904 23.3774 14.1904C24.0024 14.1904 24.6118 14.3498 25.1462 14.6501C26.268 15.2904 26.968 16.4873 26.968 17.7779Z" fill="white"/>
<path d="M25.6219 21.3096C26.15 21.4252 26.6719 21.5846 27.175 21.7814C26.7844 21.8596 26.4094 21.9908 26.0594 22.1689C24.7312 22.8564 23.8281 24.2033 23.7031 25.6877C23.575 27.194 24.25 28.6846 25.4656 29.5815C25.5125 29.6158 25.5594 29.6505 25.6062 29.6815C22.6406 30.0252 19.6156 29.6749 16.8031 28.6533C16.4344 28.519 16.1875 28.1658 16.1875 27.7721V25.5971C16.1875 24.4189 16.7781 23.338 17.7719 22.7002C18.7906 22.0471 19.9031 21.5814 21.0844 21.3189C21.2031 21.3971 21.325 21.4686 21.4531 21.5343C22.0406 21.8377 22.6687 21.9905 23.3219 21.9905C23.8625 21.9905 24.4031 21.8811 24.9094 21.678C25.1562 21.5783 25.3937 21.4533 25.6219 21.3096Z" fill="white"/>
<path d="M30.0403 22.8748C31.134 23.5529 31.8121 24.7748 31.8121 26.0592C31.8121 27.4498 31.0153 28.7592 29.7778 29.3967C29.259 29.6623 28.6684 29.8064 28.0715 29.8064C27.9496 29.8064 27.8278 29.7998 26.7184 29.5561L25.8371 29.0782C24.7965 28.3095 24.2153 27.0311 24.3246 25.7404C24.434 24.4689 25.2059 23.3123 26.3465 22.7251C26.8684 22.4564 27.459 22.3154 28.059 22.3154C28.1809 22.3154 28.3059 22.322 28.4246 22.3373C29.0028 22.3873 29.5559 22.5717 30.0403 22.8748ZM30.5621 26.0592C30.5621 25.8873 30.4215 25.7467 30.2496 25.7467H28.3746V23.8717C28.3746 23.6998 28.234 23.5592 28.0621 23.5592C27.8903 23.5592 27.7496 23.6998 27.7496 23.8717V25.7467H25.8746C25.7028 25.7467 25.5621 25.8873 25.5621 26.0592C25.5621 26.2342 25.7028 26.3717 25.8746 26.3717H27.7496V28.2467C27.7496 28.4217 27.8903 28.5592 28.0621 28.5592C28.234 28.5592 28.3746 28.4217 28.3746 28.2467V26.3717H30.2496C30.4215 26.3717 30.5621 26.2342 30.5621 26.0592Z" fill="white"/>
</svg>
